<svg width="21" height="21" viewBox="0 0 21 21" fill="none" xmlns="http://www.w3.org/2000/svg">
<g id="star_24dp_5F6368_FILL1_wght300_GRAD0_opsz24 2">
<path id="Vector" d="M10.5002 14.4071L7.25832 16.3621C7.13748 16.4326 7.01644 16.4623 6.89519 16.451C6.77394 16.4398 6.66422 16.3989 6.56602 16.3285C6.46769 16.258 6.39179 16.1658 6.33832 16.0521C6.28498 15.9383 6.27644 15.8125 6.31269 15.6746L7.17332 11.9935L4.31123 9.51603C4.20429 9.42312 4.13616 9.31548 4.10686 9.19312C4.07741 9.07075 4.08512 8.95187 4.12998 8.83645C4.17484 8.72117 4.2395 8.62693 4.32394 8.55374C4.40838 8.48055 4.5238 8.4327 4.67019 8.4102L8.44727 8.0802L9.91373 4.60416C9.96707 4.47485 10.048 4.37923 10.1564 4.31728C10.2649 4.25534 10.3795 4.22437 10.5002 4.22437C10.6209 4.22437 10.7355 4.25534 10.8439 4.31728C10.9524 4.37923 11.0333 4.47485 11.0866 4.60416L12.5531 8.0802L16.3302 8.4102C16.4766 8.4327 16.592 8.48055 16.6764 8.55374C16.7609 8.62693 16.8255 8.72117 16.8704 8.83645C16.9153 8.95187 16.923 9.07075 16.8935 9.19312C16.8642 9.31548 16.7961 9.42312 16.6891 9.51603L13.8271 11.9935L14.6877 15.6746C14.7239 15.8125 14.7154 15.9383 14.6621 16.0521C14.6086 16.1658 14.5327 16.258 14.4344 16.3285C14.3362 16.3989 14.2264 16.4398 14.1052 16.451C13.9839 16.4623 13.8629 16.4326 13.7421 16.3621L10.5002 14.4071Z" fill="#FFB848"/>
</g>
</svg>
