<svg width="32" height="32" viewBox="0 0 32 32" fill="none" xmlns="http://www.w3.org/2000/svg">
<g id="Save Button Icon">
<path id="Vector" d="M15.5512 28L14.2647 26.839C12.0473 24.8099 10.2169 23.058 8.77353 21.5832C7.33015 20.1085 6.17963 18.7906 5.32196 17.6296C4.4643 16.4686 3.86289 15.4175 3.51774 14.4761C3.17258 13.5348 3 12.583 3 11.6207C3 9.73806 3.63279 8.16394 4.89836 6.89836C6.16394 5.63279 7.7276 5 9.58936 5C10.7817 5 11.8852 5.2824 12.8997 5.8472C13.9143 6.41201 14.7981 7.22783 15.5512 8.29468C16.4297 7.16507 17.3606 6.33356 18.3438 5.80014C19.327 5.26671 20.3834 5 21.513 5C23.3747 5 24.9384 5.63279 26.204 6.89836C27.4695 8.16394 28.1023 9.73806 28.1023 11.6207C28.1023 12.583 27.9297 13.5348 27.5846 14.4761C27.2394 15.4175 26.638 16.4686 25.7804 17.6296C24.9227 18.7906 23.7722 20.1085 22.3288 21.5832C20.8854 23.058 19.055 24.8099 16.8377 26.839L15.5512 28Z" fill="#D9D9D9"/>
</g>
</svg>
