<svg width="33" height="32" viewBox="0 0 33 32" fill="none" xmlns="http://www.w3.org/2000/svg">
<g id="Shopping cart">
<path id="Vector" d="M7.16683 4C6.81321 4 6.47407 4.14048 6.22402 4.39052C5.97397 4.64057 5.8335 4.97971 5.8335 5.33333C5.8335 5.68696 5.97397 6.02609 6.22402 6.27614C6.47407 6.52619 6.81321 6.66667 7.16683 6.66667H8.7935L9.20016 8.296C9.2042 8.31476 9.20865 8.33343 9.2135 8.352L11.0242 15.592L9.8335 16.7813C8.1535 18.4613 9.34283 21.3333 11.7188 21.3333H23.1668C23.5205 21.3333 23.8596 21.1929 24.1096 20.9428C24.3597 20.6928 24.5002 20.3536 24.5002 20C24.5002 19.6464 24.3597 19.3072 24.1096 19.0572C23.8596 18.8071 23.5205 18.6667 23.1668 18.6667H11.7188L13.0522 17.3333H21.8335C22.081 17.3332 22.3237 17.2642 22.5342 17.1339C22.7447 17.0037 22.9148 16.8174 23.0255 16.596L27.0255 8.596C27.127 8.39277 27.175 8.16697 27.1648 7.94001C27.1545 7.71305 27.0865 7.49247 26.9671 7.29919C26.8477 7.10592 26.6809 6.94636 26.4825 6.83566C26.2841 6.72496 26.0607 6.66679 25.8335 6.66667H11.5402L11.1268 5.00933C11.0546 4.721 10.8881 4.46508 10.6538 4.28221C10.4194 4.09934 10.1307 4.00001 9.8335 4H7.16683ZM24.5002 24.6667C24.5002 25.1971 24.2894 25.7058 23.9144 26.0809C23.5393 26.4559 23.0306 26.6667 22.5002 26.6667C21.9697 26.6667 21.461 26.4559 21.0859 26.0809C20.7109 25.7058 20.5002 25.1971 20.5002 24.6667C20.5002 24.1362 20.7109 23.6275 21.0859 23.2525C21.461 22.8774 21.9697 22.6667 22.5002 22.6667C23.0306 22.6667 23.5393 22.8774 23.9144 23.2525C24.2894 23.6275 24.5002 24.1362 24.5002 24.6667ZM11.8335 26.6667C12.3639 26.6667 12.8726 26.4559 13.2477 26.0809C13.6228 25.7058 13.8335 25.1971 13.8335 24.6667C13.8335 24.1362 13.6228 23.6275 13.2477 23.2525C12.8726 22.8774 12.3639 22.6667 11.8335 22.6667C11.3031 22.6667 10.7944 22.8774 10.4193 23.2525C10.0442 23.6275 9.8335 24.1362 9.8335 24.6667C9.8335 25.1971 10.0442 25.7058 10.4193 26.0809C10.7944 26.4559 11.3031 26.6667 11.8335 26.6667Z" fill="white"/>
</g>
</svg>
